<?xml version="1.0" standalone="no"?>
<!DOCTYPE svg PUBLIC "-//W3C//DTD SVG 20010904//EN"
 "http://www.w3.org/TR/2001/REC-SVG-20010904/DTD/svg10.dtd">
<svg version="1.0" xmlns="http://www.w3.org/2000/svg"
 width="10.285714pt" height="10.285714pt" viewBox="0 0 10.285714 10.285714"
 preserveAspectRatio="xMidYMid meet">
<metadata>
Created by potrace 1.16, written by Peter Selinger 2001-2019
</metadata>
<g transform="translate(0.000000,10.285714) scale(0.000935,-0.000989)"
fill="#000000" stroke="none">
<path d="M0 5200 l0 -5200 5500 0 5500 0 0 5200 0 5200 -5500 0 -5500 0 0
-5200z m10068 4863 c-7 -9 -15 -10 -23 -3 -16 13 -80 -53 -72 -74 11 -28 -14
-28 -44 0 l-29 28 -44 -43 c-58 -57 -75 -36 -17 23 l41 42 -31 31 c-18 17 -28
36 -24 42 5 8 11 9 19 2 9 -8 23 0 50 28 25 25 34 41 26 46 -8 5 -8 11 1 21
11 13 24 4 85 -57 57 -56 71 -76 62 -86z m-1368 106 c0 -29 1 -30 42 -27 35 2
43 7 48 27 9 37 30 38 30 2 0 -26 4 -31 25 -31 14 0 25 -4 25 -10 0 -5 -13
-10 -30 -10 -20 0 -30 -5 -30 -15 0 -8 -7 -15 -15 -15 -8 0 -15 7 -15 15 0 11
-12 15 -44 15 -41 0 -44 -2 -50 -31 -10 -50 -7 -69 9 -69 8 0 15 -4 15 -10 0
-5 -9 -10 -19 -10 -13 0 -21 -9 -26 -30 -4 -16 -13 -30 -21 -30 -10 0 -12 8
-7 30 5 28 4 30 -26 30 -17 0 -31 5 -31 10 0 6 13 10 29 10 35 0 37 2 46 58 7
42 7 42 -25 42 -18 0 -29 4 -25 10 3 6 17 10 31 10 14 0 27 7 29 15 3 8 7 22
10 30 8 26 25 16 25 -16z m675 25 c26 -10 45 -59 45 -118 0 -45 4 -58 20 -68
11 -7 20 -16 20 -20 0 -5 -58 -8 -130 -8 -71 0 -130 3 -130 8 0 4 9 13 20 20
16 10 20 23 20 68 0 55 19 108 42 117 19 8 74 8 93 1z m-8495 -150 c0 -87 -13
-107 -69 -102 -25 2 -37 8 -39 20 -3 15 2 17 25 12 19 -4 33 -1 41 8 10 12 6
14 -18 10 -41 -6 -60 13 -60 59 0 50 20 68 75 67 l45 -1 0 -73z m9667 5 c40
-15 73 -49 73 -76 0 -23 -1 -23 -120 -23 -119 0 -120 0 -120 23 0 39 62 85
117 86 12 1 34 -4 50 -10z m-1647 -59 l0 -60 -44 0 c-26 0 -48 -6 -56 -15 -7
-8 -16 -15 -21 -15 -5 0 -9 7 -9 15 0 8 -7 15 -15 15 -12 0 -15 13 -15 60 l0
60 80 0 80 0 0 -60z m-6928 -1252 l22 -62 22 50 c13 27 23 55 23 62 1 6 9 12
20 12 21 0 31 -40 31 -122 0 -36 -4 -48 -15 -48 -11 0 -15 12 -15 45 0 56 -11
57 -31 3 -22 -60 -43 -60 -65 -2 -14 38 -19 43 -25 28 -4 -11 -8 -31 -8 -46
-1 -19 -6 -28 -17 -28 -15 0 -16 9 -10 61 3 34 6 73 6 85 0 17 6 24 19 24 15
0 25 -15 43 -62z m727 53 c8 -5 12 -18 8 -30 -3 -12 -1 -24 4 -27 5 -3 9 6 9
20 0 47 69 63 95 22 19 -29 11 -72 -17 -87 -20 -11 -58 -3 -71 15 -6 8 -10 8
-14 -1 -2 -7 -20 -13 -39 -13 l-34 0 0 55 c0 50 2 55 23 55 12 0 28 -4 36 -9z
m-899 -729 c13 -10 23 -33 27 -58 7 -55 -26 -96 -79 -96 -20 0 -42 3 -48 7
-20 12 -41 75 -34 98 18 62 87 87 134 49z m640 -2 c24 -24 25 -47 4 -71 -15
-16 -15 -20 0 -41 22 -30 20 -38 -7 -38 -14 0 -29 11 -39 28 l-17 27 -1 -27
c0 -23 -4 -28 -25 -28 -25 0 -25 1 -25 85 l0 85 45 0 c32 0 51 -6 65 -20z
m270 -65 l0 -85 -51 0 c-42 0 -52 3 -56 20 -3 11 -8 20 -12 20 -3 0 -12 -9
-19 -20 -15 -24 -64 -27 -86 -4 -9 8 -16 27 -16 41 0 60 74 86 106 38 l17 -26
11 23 c7 14 22 24 39 26 21 3 27 9 27 28 0 17 5 24 20 24 18 0 20 -7 20 -85z
m730 1 l0 -84 -47 0 c-58 0 -73 11 -73 54 0 37 22 64 51 64 14 0 19 7 19 25 0
20 5 25 25 25 25 0 25 -1 25 -84z m1657 62 c13 -12 23 -28 23 -35 0 -21 27 7
32 33 4 25 68 34 68 10 0 -9 -7 -16 -15 -16 -8 0 -15 -4 -15 -10 0 -19 35 -10
45 13 8 18 19 22 63 24 46 2 53 0 50 -15 -3 -12 -12 -16 -35 -15 -18 2 -35 -2
-38 -7 -6 -10 12 -14 53 -10 21 1 22 -2 22 -59 0 -58 -1 -61 -25 -61 -23 0
-25 4 -25 45 0 33 -4 45 -15 45 -11 0 -15 -12 -15 -45 0 -38 -3 -45 -20 -45
-17 0 -20 7 -20 45 0 38 -3 45 -20 45 -17 0 -20 -7 -20 -45 0 -38 -3 -45 -20
-45 -17 0 -20 7 -20 45 0 54 -14 58 -30 9 -33 -98 -170 -62 -157 41 10 70 84
100 134 53z m733 -23 c7 -25 16 -45 20 -45 4 0 13 20 20 45 10 37 17 45 36 45
29 0 29 3 -4 -90 -24 -65 -30 -75 -53 -78 -25 -3 -29 2 -54 72 -28 77 -27 96
4 96 13 0 22 -13 31 -45z m290 -40 l0 -85 -48 0 c-56 0 -72 12 -72 56 0 37 22
64 51 64 14 0 19 7 19 25 0 20 5 25 25 25 25 0 25 -1 25 -85z m665 60 c33 -32
33 -84 3 -119 -22 -24 -40 -30 -80 -27 -59 4 -81 111 -32 150 36 28 79 27 109
-4z m633 9 c25 -17 29 -56 7 -74 -13 -11 -13 -17 6 -46 l21 -34 -25 0 c-16 0
-33 10 -46 28 l-20 27 -1 -27 c0 -23 -4 -28 -25 -28 -25 0 -25 1 -25 85 l0 85
43 0 c23 0 53 -7 65 -16z m282 -69 l0 -85 -48 0 c-56 0 -72 12 -72 56 0 37 22
64 51 64 14 0 19 7 19 25 0 20 5 25 25 25 25 0 25 -1 25 -85z m-4700 22 c0
-25 -33 -67 -53 -68 -24 -1 -18 -4 26 -13 31 -7 37 -36 11 -57 -20 -17 -77
-17 -97 0 -14 11 -14 16 -1 46 9 22 10 36 4 40 -14 8 -13 38 2 53 13 13 108
13 108 -1z m1675 -7 c0 -11 -9 -14 -30 -12 l-30 3 35 -18 35 -18 15 30 c11 22
23 31 46 33 32 3 47 -8 58 -45 7 -21 4 -23 -28 -23 -20 0 -36 -5 -36 -11 0 -7
12 -10 30 -7 27 4 47 -12 33 -26 -13 -13 -77 -5 -95 11 -17 15 -19 15 -31 -1
-16 -22 -92 -19 -92 4 0 11 9 14 35 13 33 -3 33 -2 10 7 -64 27 -58 84 8 78
25 -2 37 -8 37 -18z m3312 7 c3 -5 2 -12 -3 -16 -5 -3 -14 -15 -20 -26 -6 -11
-22 -23 -35 -26 -24 -7 -24 -7 3 -8 32 -1 59 -26 52 -46 -9 -22 -66 -37 -98
-25 -25 9 -27 13 -20 43 8 38 8 47 0 68 -12 28 20 49 70 47 25 -1 47 -6 51
-11z m-6817 -3352 c0 -1823 -3 -2745 -10 -2745 -5 0 -19 9 -30 20 -20 20 -20
33 -20 2725 0 2692 0 2705 20 2725 11 11 25 20 30 20 7 0 10 -922 10 -2745z
m1643 2393 c24 -29 22 -86 -5 -115 -30 -33 -80 -31 -107 3 -65 83 44 193 112
112z m3270 21 c50 -23 62 -95 22 -134 -30 -31 -71 -32 -102 -3 -39 37 -27 119
20 138 30 12 32 12 60 -1z m-2629 -31 c8 -22 6 -32 -8 -47 -17 -18 -17 -22 -2
-43 20 -28 20 -38 1 -38 -9 0 -24 13 -33 30 -22 38 -32 38 -32 0 0 -23 -4 -30
-20 -30 -18 0 -20 7 -20 81 l0 80 52 -3 c47 -3 54 -6 62 -30z m-1715 -744 c41
-52 17 -124 -42 -124 -38 0 -50 7 -66 38 -25 48 12 112 65 112 13 0 32 -12 43
-26z m464 -454 c28 -17 59 -35 67 -40 60 -34 126 -58 135 -49 10 11 -14 35
-91 92 l-37 27 122 0 c67 0 130 -4 140 -9 10 -6 23 -28 31 -50 7 -23 20 -41
28 -41 10 0 12 -7 8 -24 -5 -20 -2 -25 16 -28 12 -2 27 -12 33 -23 5 -11 20
-30 33 -43 12 -12 22 -26 22 -31 0 -13 56 -71 69 -71 6 0 11 -6 11 -14 0 -19
29 -41 54 -41 16 0 23 -9 30 -35 8 -35 10 -36 60 -38 96 -4 100 -6 106 -32 5
-21 12 -25 38 -23 24 2 30 0 26 -12 -11 -27 10 -16 39 20 16 20 33 32 39 29
19 -12 100 -15 113 -4 9 8 33 6 82 -5 37 -9 78 -13 89 -11 13 4 32 -2 47 -14
14 -11 29 -20 34 -20 18 -1 53 -39 53 -58 0 -21 -37 -57 -69 -67 -27 -8 -53
-62 -46 -94 7 -34 -37 -132 -80 -177 -17 -16 -46 -51 -65 -76 -22 -29 -55 -56
-90 -74 -47 -24 -124 -76 -140 -95 -3 -3 -25 -19 -50 -34 -25 -15 -74 -57
-110 -92 -36 -35 -82 -71 -102 -80 -21 -9 -38 -20 -38 -25 0 -4 -26 -15 -57
-24 -32 -9 -67 -25 -79 -35 -11 -11 -27 -19 -35 -19 -8 0 -30 -13 -49 -28 -20
-15 -50 -29 -70 -31 -19 -2 -37 -4 -38 -6 -2 -2 -8 -23 -13 -46 -9 -40 -48
-89 -70 -89 -5 0 -9 -4 -9 -8 0 -14 -82 -67 -121 -79 -35 -10 -69 1 -69 22 0
29 -41 86 -87 124 l-56 44 6 57 c6 53 2 67 -29 108 -1 2 -22 8 -45 13 -80 18
-93 56 -31 88 47 24 67 59 59 106 -9 58 -30 70 -116 70 -75 0 -76 0 -79 27 -3
25 2 30 55 53 82 37 93 49 93 107 0 39 -5 54 -25 73 -22 22 -32 25 -104 25
-44 0 -82 4 -85 8 -12 19 19 35 130 69 65 19 125 40 132 45 20 17 14 35 -22
75 -18 21 -40 52 -49 68 -8 17 -40 68 -71 115 -31 46 -56 88 -56 92 0 4 -18
26 -40 48 -22 22 -40 46 -40 54 0 8 -11 52 -25 99 -13 47 -28 104 -31 126 l-7
41 237 0 236 0 53 -30z m4492 11 c3 -11 10 -57 15 -103 18 -157 21 -173 42
-215 11 -23 18 -48 15 -56 -3 -8 2 -25 10 -37 9 -13 17 -44 18 -69 1 -25 6
-55 12 -66 6 -11 8 -26 5 -34 -3 -8 0 -11 7 -7 6 4 11 1 11 -8 0 -9 -4 -16
-10 -16 -18 0 -11 -28 9 -35 10 -3 22 -17 25 -30 4 -14 11 -25 16 -25 6 0 10
-12 10 -26 0 -14 12 -46 28 -72 15 -26 28 -56 29 -67 3 -46 16 -101 27 -115
14 -17 33 -91 41 -160 4 -25 11 -64 17 -86 7 -31 7 -48 -2 -65 -17 -30 -39
-126 -40 -166 0 -18 -8 -41 -18 -51 -13 -13 -17 -29 -14 -55 2 -22 -1 -44 -9
-53 -9 -11 -10 -18 -2 -22 6 -4 11 -29 11 -56 0 -26 5 -53 11 -59 6 -6 11 -27
11 -46 0 -20 9 -49 19 -65 14 -20 18 -41 15 -70 -15 -169 -24 -196 -61 -196
-15 0 -22 4 -18 11 4 6 -2 17 -14 25 -12 8 -21 19 -21 24 0 10 -60 109 -77
127 -6 7 -14 27 -18 44 -8 37 -43 101 -62 112 -8 5 -13 29 -14 60 0 29 -3 45
-6 37 -2 -8 -7 -22 -10 -30 -8 -24 -43 54 -50 110 -5 46 -4 49 16 43 24 -6 25
-4 10 34 -16 39 -27 172 -14 167 5 -2 15 7 21 20 10 21 8 29 -16 58 -28 34
-45 98 -26 98 7 0 7 3 1 8 -22 15 -45 80 -54 152 -6 41 -22 118 -36 170 -57
212 -77 287 -87 320 -5 19 -13 56 -18 82 -5 25 -15 59 -24 76 -8 16 -13 32
-10 34 2 3 -2 23 -10 46 -8 23 -18 61 -21 84 -6 44 -15 76 -47 166 -10 29 -18
57 -18 62 0 6 73 10 184 10 173 0 185 -1 191 -19z m-955 -221 c24 -12 40 -28
40 -38 0 -9 9 -23 19 -29 17 -11 18 -17 10 -49 -15 -51 -45 -97 -66 -100 -10
-2 -19 -8 -21 -13 -2 -6 -10 -11 -17 -11 -7 0 -15 -7 -19 -15 -3 -8 -14 -15
-25 -15 -28 0 -35 -16 -17 -42 20 -28 20 -58 1 -85 -9 -13 -13 -32 -10 -45 5
-18 -4 -33 -40 -68 -25 -25 -72 -71 -104 -102 -65 -65 -83 -72 -75 -29 4 21 2
30 -11 35 -9 3 -21 4 -26 0 -9 -5 -10 -1 -13 56 -1 22 -6 34 -14 32 -14 -2 -5
51 10 56 4 2 8 8 8 13 0 5 28 47 63 95 77 107 129 190 173 276 30 60 64 98 87
98 4 0 26 -9 47 -20z m-561 -697 c2 -1 -2 -9 -9 -18 -11 -13 -10 -14 6 -9 10
4 25 14 32 22 6 9 12 11 12 5 0 -7 -4 -15 -10 -18 -17 -10 -11 -25 10 -25 13
0 20 -7 20 -20 0 -22 -10 -26 -27 -9 -7 7 -12 0 -17 -25 -4 -20 -11 -36 -16
-36 -6 0 -10 -7 -10 -15 0 -8 5 -15 11 -15 8 0 8 -4 -1 -15 -10 -11 -9 -18 3
-30 9 -8 20 -15 26 -15 6 0 11 -7 11 -15 0 -9 -9 -15 -21 -15 -19 0 -19 -1 -5
-16 18 -17 21 -34 7 -34 -5 0 -12 8 -14 18 -4 13 -5 13 -6 -4 0 -12 6 -38 14
-57 8 -20 12 -42 9 -51 -3 -9 2 -17 15 -21 15 -4 21 -18 26 -58 6 -44 12 -56
41 -77 60 -43 65 -50 62 -92 -1 -24 3 -43 11 -48 10 -6 6 -12 -18 -25 -22 -11
-31 -21 -27 -32 4 -9 1 -22 -5 -30 -17 -20 -5 -26 23 -12 47 25 52 25 71 6 27
-27 8 -36 -78 -36 -85 0 -137 -9 -150 -25 -5 -7 -23 -16 -39 -20 -29 -7 -29
-7 -7 -22 12 -9 30 -13 42 -9 18 6 19 4 11 -12 -5 -10 -7 -24 -5 -31 3 -7 -17
-22 -52 -37 -31 -14 -53 -30 -50 -35 4 -6 -7 -10 -25 -10 -17 0 -41 -7 -54
-15 -13 -9 -28 -15 -32 -14 -29 5 -37 -2 -19 -15 16 -12 18 -18 7 -40 -6 -14
-8 -25 -4 -25 4 1 12 0 17 -1 6 -1 37 -3 69 -4 37 0 61 -6 63 -13 3 -8 -4 -13
-16 -13 -12 0 -21 -4 -21 -10 0 -5 6 -10 14 -10 8 0 21 -3 29 -6 13 -5 31 27
28 49 -2 16 23 6 55 -23 19 -16 29 -32 23 -35 -7 -5 -6 -11 2 -21 9 -11 8 -15
-5 -20 -14 -5 -12 -10 11 -32 16 -15 41 -34 57 -43 38 -20 41 -30 16 -56 -11
-13 -17 -29 -14 -38 10 -25 -25 -56 -60 -54 -17 1 -48 -2 -68 -6 -25 -5 -38
-4 -38 3 0 6 -25 18 -55 27 -30 8 -55 21 -55 28 0 7 -17 20 -39 29 -21 9 -45
23 -52 31 -8 7 -26 21 -41 31 -15 10 -25 22 -22 27 10 17 -22 20 -58 4 -35
-14 -37 -14 -43 5 -4 11 -13 20 -21 20 -18 0 -18 -14 1 -30 8 -7 15 -19 15
-26 0 -8 -7 -14 -15 -14 -8 0 -15 -7 -15 -16 0 -8 -4 -12 -10 -9 -5 3 -10 22
-10 42 0 29 -2 33 -14 24 -10 -9 -15 -8 -19 3 -7 18 8 30 24 20 10 -6 28 11
29 27 0 9 -49 -2 -56 -12 -8 -14 -35 -11 -33 4 3 26 -1 47 -11 47 -6 0 -8 -11
-4 -25 3 -14 2 -25 -3 -25 -15 0 -34 50 -28 71 4 11 2 19 -4 19 -6 0 -10 9 -8
19 1 11 -2 19 -6 18 -12 -3 -36 44 -37 71 0 13 6 22 15 22 8 0 15 5 15 10 0 6
-5 10 -11 10 -7 0 -9 10 -7 25 3 14 -1 30 -8 36 -17 14 -18 41 -2 57 10 10 8
19 -5 42 -17 28 -17 30 3 50 12 12 20 33 20 56 0 21 4 33 10 29 6 -3 10 1 10
9 0 9 6 16 14 16 8 0 17 7 20 15 5 13 0 15 -28 10 l-33 -7 -2 57 c0 32 3 54 8
50 5 -3 11 7 13 22 2 17 12 32 26 38 26 11 28 23 7 31 -20 8 -20 87 -1 107 8
8 12 24 9 35 -4 16 -1 20 14 16 11 -3 23 3 31 16 12 20 8 45 -6 36 -4 -2 -8
18 -9 45 -1 27 3 51 8 54 18 12 9 26 -13 19 -21 -6 -21 -6 -5 10 9 10 17 26
17 37 0 10 7 19 15 19 8 0 15 7 15 16 0 11 -6 15 -20 11 -11 -3 -20 -2 -20 1
1 19 19 29 52 28 29 -1 38 -5 38 -19 0 -27 41 -77 76 -92 92 -38 168 -16 261
74 42 41 75 65 85 63 14 -3 16 1 11 15 -6 16 -5 17 13 3 10 -8 21 -16 23 -17z
m377 -14 c18 -17 26 -19 42 -10 30 16 57 13 76 -8 16 -17 21 -18 63 -5 25 8
63 14 84 14 21 0 41 5 44 10 7 11 181 12 229 1 16 -3 34 -14 40 -23 18 -29
-33 -72 -86 -74 -24 0 -60 -8 -80 -17 -43 -20 -71 -21 -100 -6 -16 9 -29 7
-60 -7 -37 -16 -41 -16 -75 0 -25 12 -48 15 -77 11 -36 -6 -44 -3 -65 19 -17
18 -35 26 -58 26 -41 0 -62 34 -44 69 15 27 39 27 67 0z m-1343 -39 c4 0 14 0
23 0 13 0 15 -7 11 -30 -5 -22 -3 -30 8 -30 17 0 20 -16 6 -25 -5 -3 -7 -21
-4 -40 5 -32 3 -36 -26 -46 -25 -9 -29 -14 -20 -25 6 -8 15 -11 20 -8 5 3 9
-1 10 -8 5 -62 4 -98 -2 -98 -17 0 -47 52 -53 92 -4 23 -12 48 -18 55 -12 15
-54 18 -62 4 -8 -12 -46 -21 -46 -10 0 5 17 16 38 25 35 15 36 16 18 30 -19
13 -18 14 10 15 28 0 28 1 7 11 -13 6 -23 19 -23 28 0 25 40 33 62 13 10 -9
21 -14 24 -10 9 9 -6 28 -17 22 -5 -4 -9 0 -9 7 0 7 -3 24 -7 37 -6 23 -5 23
18 8 13 -9 27 -16 32 -17z m1306 -146 c28 -14 75 -29 103 -34 107 -17 142 -29
160 -52 10 -13 18 -29 18 -35 0 -7 7 -13 15 -13 8 0 15 -6 15 -14 0 -7 9 -16
19 -19 14 -3 18 -11 15 -24 -10 -39 85 -153 127 -153 10 0 21 -4 24 -10 10
-16 -70 -12 -117 7 -24 9 -51 23 -61 31 -12 11 -34 15 -75 12 -31 -1 -73 -2
-92 -2 -19 0 -52 1 -73 1 -33 0 -39 4 -52 33 -7 18 -22 42 -33 53 -10 12 -22
38 -26 59 -4 21 -18 49 -32 63 -13 13 -24 31 -24 39 0 8 -4 12 -10 9 -5 -3
-10 1 -10 9 0 8 5 18 10 21 6 3 10 15 10 26 0 26 27 24 89 -7z m-3962 -196
c29 -33 34 -54 20 -86 -22 -53 -68 -82 -141 -89 -78 -7 -80 -2 -41 82 27 57
38 68 88 95 44 24 50 24 74 -2z m4099 -162 c3 -7 29 -26 57 -41 29 -16 54 -32
57 -35 3 -4 27 -18 55 -30 27 -12 67 -34 90 -49 22 -14 58 -31 79 -36 52 -14
69 -41 39 -62 -13 -9 -23 -22 -23 -29 0 -8 -9 -14 -20 -14 -31 0 -24 -17 10
-24 48 -9 59 -45 29 -102 -32 -64 -59 -80 -107 -66 -61 18 -102 20 -102 5 0
-7 -7 -14 -15 -14 -30 -3 -34 -4 -46 -16 -21 -21 -28 -15 -24 16 4 32 -24 69
-33 43 -2 -7 -11 -19 -19 -28 -15 -14 -19 -13 -46 14 -16 17 -30 40 -31 53 -1
18 -11 26 -49 38 -33 10 -46 19 -42 29 8 22 -5 35 -22 21 -12 -10 -16 -10 -23
1 -12 20 -1 32 24 26 27 -7 41 3 49 34 3 14 22 41 41 60 33 34 34 39 33 105 0
74 8 115 24 115 5 0 12 -6 15 -14z m-3819 -404 c-8 -9 -23 -35 -34 -57 -14
-31 -27 -43 -58 -53 -22 -7 -42 -17 -45 -22 -5 -8 -76 -36 -114 -45 -10 -2
-23 -8 -30 -13 -6 -5 -30 -15 -54 -22 -24 -7 -48 -21 -53 -29 -8 -12 -11 -13
-16 -3 -4 10 -7 10 -17 -1 -6 -8 -23 -17 -38 -21 l-28 -6 0 60 0 60 48 21 c26
12 55 26 64 30 10 5 24 9 31 9 8 0 36 11 63 25 27 14 54 25 60 25 6 0 37 14
70 31 32 17 82 39 109 49 49 18 50 18 53 -1 2 -12 -3 -28 -11 -37z m143 -1057
c37 -19 67 -61 75 -108 l7 -37 -96 0 c-98 0 -114 -8 -84 -38 15 -15 64 -16 73
-2 3 6 26 10 51 10 l45 0 -17 -30 c-61 -102 -227 -65 -250 55 -11 59 32 138
86 158 29 11 81 7 110 -8z m561 -8 c90 -60 88 -181 -4 -237 -61 -37 -152 -16
-188 44 -23 37 -25 106 -4 145 35 68 131 91 196 48z m-928 -43 c15 -30 31 -53
35 -50 4 2 18 27 32 55 25 50 25 51 73 51 l47 0 -19 -37 c-48 -90 -127 -216
-135 -216 -6 1 -34 43 -64 94 -29 52 -63 109 -74 127 l-20 32 49 0 49 0 27
-56z m544 1 c15 -30 30 -55 33 -55 3 0 18 25 34 55 28 54 29 55 72 55 24 0 44
-2 44 -5 0 -10 -143 -255 -149 -255 -5 0 -139 225 -149 252 -2 4 17 8 42 8 46
0 46 0 73 -55z m6425 -2062 c10 -9 18 -22 18 -30 0 -7 5 -13 10 -13 6 0 10 5
10 12 0 18 31 48 51 48 10 0 25 -10 33 -22 14 -19 14 -25 1 -44 -14 -22 -13
-23 18 -26 27 -2 33 -8 35 -30 l3 -28 -151 0 -151 0 3 28 c2 22 8 28 35 30 31
3 32 4 18 26 -13 19 -13 25 1 44 18 26 41 28 66 5z m796 9 c9 -7 12 -43 10
-148 l-3 -139 -175 0 -175 0 -3 134 c-1 74 0 141 2 148 4 10 44 13 168 13 90
0 169 -4 176 -8z m402 -44 c0 -73 25 -98 97 -98 l53 0 0 -62 c0 -35 -4 -69 -8
-76 -7 -9 -43 -12 -148 -10 l-139 3 -3 134 c-1 74 0 141 2 148 4 9 27 13 76
13 l70 0 0 -52z m653 9 c133 -101 52 -311 -114 -295 -163 16 -204 237 -57 312
48 24 127 17 171 -17z m-9668 -2 c137 -80 67 -290 -91 -272 -84 9 -141 80
-131 163 12 111 125 167 222 109z m1694 -56 c36 -13 51 -35 51 -79 0 -48 -38
-80 -95 -80 l-45 0 0 78 c0 43 3 82 7 85 10 10 46 8 82 -4z m6141 -139 l0 -60
-55 0 c-63 0 -75 13 -75 79 l0 41 65 0 65 0 0 -60z m150 19 c0 -66 -12 -79
-75 -79 l-55 0 0 60 0 60 65 0 65 0 0 -41z"/>
</g>
</svg>
